<?xml version="1.0" encoding="UTF-8" standalone="no"?>
<!DOCTYPE svg PUBLIC "-//W3C//DTD SVG 1.1//EN" "http://www.w3.org/Graphics/SVG/1.1/DTD/svg11.dtd">
<svg width="100%" height="100%" viewBox="0 0 400 400" version="1.1" xmlns="http://www.w3.org/2000/svg" xmlns:xlink="http://www.w3.org/1999/xlink" xml:space="preserve" xmlns:serif="http://www.serif.com/" style="fill-rule:evenodd;clip-rule:evenodd;stroke-linejoin:round;stroke-miterlimit:2;">
    <g transform="matrix(0.103279,0,0,0.103279,0,0)">
        <path d="M1936.5,107.6C928,107.6 107.6,928 107.6,1936.5C107.6,2945 928,3765.4 1936.5,3765.4C2945,3765.4 3765.4,2945 3765.4,1936.5C3765.4,928 2945,107.6 1936.5,107.6ZM1936.5,3873C1675.1,3873 1421.5,3821.8 1182.7,3720.8C952.1,3623.3 745,3483.7 567.2,3305.8C389.4,3127.9 249.7,2920.8 152.2,2690.3C51.2,2451.5 0,2197.9 0,1936.5C0,1675.1 51.2,1421.5 152.2,1182.7C249.7,952.1 389.3,745 567.2,567.2C745.1,389.4 952.2,249.7 1182.7,152.2C1421.5,51.201 1675.1,0 1936.5,0C2197.9,0 2451.5,51.201 2690.3,152.2C2920.9,249.7 3128,389.3 3305.8,567.2C3483.6,745.1 3623.3,952.2 3720.8,1182.7C3821.8,1421.5 3873,1675.1 3873,1936.5C3873,2197.9 3821.8,2451.5 3720.8,2690.3C3623.3,2920.9 3483.7,3128 3305.8,3305.8C3127.9,3483.6 2920.8,3623.3 2690.3,3720.8C2451.5,3821.8 2197.9,3873 1936.5,3873Z" style="fill:rgb(3,4,4);fill-rule:nonzero;"/>
        <path d="M2471.7,2826.9C2471.7,2848.3 2454.4,2865.6 2433,2865.6L2237.4,2865.6C2216,2865.6 2198.7,2848.3 2198.7,2826.9L2198.7,2631.7C2198.7,2610.3 2216,2593 2237.4,2593L2432.5,2593C2453.9,2593 2471.2,2610.3 2471.2,2631.7L2471.7,2826.9ZM2109.3,2812.1C2109.3,2833.5 2092,2850.8 2070.6,2850.8C2049.2,2850.8 2031.9,2833.5 2031.9,2812.1L2031.9,2646.5C2031.9,2625.1 2049.2,2607.8 2070.6,2607.8C2092,2607.8 2109.3,2625.1 2109.3,2646.5L2109.3,2812.1ZM1771.8,2899.4C1677.8,2899.4 1601.8,2823.2 1601.8,2729.4C1601.8,2635.6 1678,2559.4 1771.8,2559.4C1865.8,2559.4 1941.8,2635.6 1941.8,2729.4L1941.8,2729.5C1941.6,2823.5 1865.3,2899.5 1771.4,2899.3L1771.8,2899.4ZM1511.7,2812.1C1511.7,2833.5 1494.4,2850.8 1473,2850.8C1451.6,2850.8 1434.3,2833.5 1434.3,2812.1L1434.3,2646.5C1434.3,2625.1 1451.6,2607.8 1473,2607.8C1494.4,2607.8 1511.7,2625.1 1511.7,2646.5L1511.7,2812.1ZM1344.5,2826.9C1344.5,2848.3 1327.2,2865.6 1305.8,2865.6L1110.5,2865.6C1089.1,2865.6 1071.8,2848.3 1071.8,2826.9L1071.8,2631.7C1071.8,2610.3 1089.1,2593 1110.5,2593L1305.8,2593C1327.2,2593 1344.5,2610.3 1344.5,2631.7L1344.5,2826.9ZM1004.7,2496.9L1004.7,2961.7L2538.2,2961.7L2538.2,2496.9L1004.7,2496.9Z" style="fill:rgb(3,4,4);fill-rule:nonzero;"/>
        <path d="M2147.5,1867.1C2147.5,1900.3 2120.6,1927.2 2087.4,1927.2C2054.2,1927.2 2027.3,1900.3 2027.3,1867.1C2027.3,1833.9 2054.2,1807 2087.4,1807L2087.5,1807C2120.7,1807.1 2147.5,1833.9 2147.5,1867.1Z" style="fill:rgb(3,4,4);fill-rule:nonzero;"/>
        <path d="M1867.7,2030C1867.7,2063.1 1840.8,2090.1 1807.6,2090.1C1774.5,2090.1 1747.5,2063.2 1747.5,2030C1747.5,1996.9 1774.4,1969.9 1807.6,1969.9C1840.8,1970 1867.7,1996.9 1867.7,2030Z" style="fill:rgb(3,4,4);fill-rule:nonzero;"/>
        <path d="M1541.8,1964.2C1541.8,1997.4 1514.9,2024.3 1481.7,2024.3C1448.5,2024.3 1421.6,1997.4 1421.6,1964.2C1421.6,1931 1448.5,1904.1 1481.7,1904.1L1481.8,1904.1C1514.9,1904.2 1541.7,1931 1541.8,1964.2Z" style="fill:rgb(3,4,4);fill-rule:nonzero;"/>
        <path d="M1864.1,2729.3C1864.1,2780.4 1822.6,2821.9 1771.5,2821.9C1720.4,2821.9 1678.9,2780.4 1678.9,2729.3C1678.9,2678.2 1720.4,2636.7 1771.5,2636.7C1822.6,2636.8 1864,2678.2 1864.1,2729.3Z" style="fill:rgb(3,4,4);fill-rule:nonzero;"/>
        <path d="M2615.6,3000.5C2615.6,3021.9 2598.3,3039.2 2576.9,3039.2L966,3039.2C944.6,3039.2 927.3,3021.9 927.3,3000.5L927.3,872.5C927.3,851.1 944.6,833.8 966,833.8L2576.9,833.8C2598.3,833.8 2615.6,851.1 2615.6,872.5L2615.6,3000.5ZM2639.7,730.9L903.3,730.9C859.8,730.9 824.5,766.2 824.5,809.7L824.5,3063.2C824.5,3106.7 859.8,3142 903.3,3142L2639.8,3142C2683.3,3141.9 2718.5,3106.7 2718.6,3063.2L2718.6,809.7C2718.5,766.2 2683.3,730.9 2639.7,730.9Z" style="fill:rgb(3,4,4);fill-rule:nonzero;"/>
        <path d="M2283.9,2072.7C2200.2,2175.6 2062.9,2250 1897.6,2282.4C1839.4,2293.7 1780.4,2299.5 1721.1,2299.5C1628.2,2299.5 1538.5,2285.1 1462.3,2256.8C1380.2,2226.5 1184.1,2138.4 1135.1,1976.2C1106.8,1882.5 1131.5,1781.4 1208.4,1675.9C1258.6,1607.1 1322.7,1582.6 1374.4,1563C1449.7,1534.3 1499.4,1515.3 1506.8,1377.7C1515,1225.3 1590.8,1108.8 1715.2,1058.1C1859.6,999.2 2044.3,1040.1 2174.9,1159.9L2175.7,1160.7C2302.3,1283.2 2385.9,1438.2 2411.2,1597C2438.8,1771.9 2394.9,1936.5 2283.9,2072.7ZM1004.7,911.2L1004.7,2419.4L2538.2,2419.4L2538.2,911.2L1004.7,911.2Z" style="fill:rgb(3,4,4);fill-rule:nonzero;"/>
        <path d="M2087.6,2004.6C2011.7,2004.6 1950,1943.1 1950,1867.1C1950,1791.2 2011.5,1729.5 2087.5,1729.5C2163.4,1729.5 2225.1,1791 2225.1,1867L2225.1,1867.1C2224.9,1942.9 2163.4,2004.4 2087.6,2004.6ZM1807.7,2167.5C1731.8,2167.5 1670.2,2105.9 1670.2,2030C1670.2,1954.1 1731.8,1892.5 1807.7,1892.5C1883.6,1892.5 1945.2,1954.1 1945.2,2030C1945.1,2105.9 1883.6,2167.4 1807.7,2167.5ZM1610.9,1651.4C1610.9,1575.5 1672.4,1513.8 1748.4,1513.8C1824.3,1513.8 1886,1575.3 1886,1651.3C1886,1727.2 1824.5,1788.9 1748.5,1788.9L1748.4,1788.9C1672.5,1788.8 1611,1727.3 1610.9,1651.4ZM1481.7,2101.6C1405.8,2101.6 1344.2,2040 1344.2,1964.1C1344.2,1888.2 1405.8,1826.6 1481.7,1826.6C1557.6,1826.6 1619.2,1888.2 1619.2,1964.1C1619.2,2040 1557.7,2101.5 1481.7,2101.6ZM1921.2,1153.6C1997.1,1153.6 2058.7,1215.2 2058.7,1291.1C2058.7,1367 1997.1,1428.6 1921.2,1428.6C1845.3,1428.6 1783.7,1367 1783.7,1291.1C1783.8,1215.2 1845.3,1153.6 1921.2,1153.6ZM2256.3,1549.2C2256.4,1625.1 2194.9,1686.7 2118.9,1686.8C2043,1686.9 1981.4,1625.4 1981.3,1549.4C1981.2,1473.5 2042.7,1411.9 2118.7,1411.8L2119.1,1411.8C2194.8,1412.1 2256.2,1473.5 2256.3,1549.2ZM2122,1216.6C2045.6,1146.6 1948.1,1108.6 1856.4,1108.6C1818,1108.3 1780,1115.6 1744.4,1129.8C1647.6,1169.3 1590.7,1258.8 1584,1381.8C1574,1569.6 1482.8,1604.5 1402,1635.3C1353.5,1653.8 1308,1671.2 1271.1,1721.5C1209.2,1806.4 1188.4,1884.6 1209.4,1953.9C1248.1,2082.9 1418.1,2158 1489.3,2184.3C1599.1,2224.8 1746.3,2233.2 1882.9,2206.5C2030.5,2177.6 2151.7,2112.8 2224,2023.9C2445.5,1751.6 2326.4,1414.6 2122,1216.6Z" style="fill:rgb(3,4,4);fill-rule:nonzero;"/>
        <path d="M2178.9,1549.2C2179,1582.3 2152.1,1609.3 2119,1609.3C2085.9,1609.4 2058.9,1582.5 2058.9,1549.4C2058.8,1516.3 2085.7,1489.3 2118.8,1489.3L2119.2,1489.3C2152.1,1489.5 2178.7,1516.2 2178.9,1549.2Z" style="fill:rgb(3,4,4);fill-rule:nonzero;"/>
        <path d="M1808.4,1651.4C1808.4,1684.6 1781.5,1711.5 1748.3,1711.5C1715.1,1711.5 1688.2,1684.6 1688.2,1651.4C1688.2,1618.2 1715.1,1591.3 1748.3,1591.3L1748.4,1591.3C1781.5,1591.4 1808.4,1618.3 1808.4,1651.4Z" style="fill:rgb(3,4,4);fill-rule:nonzero;"/>
        <path d="M1981.3,1291.1C1981.3,1324.2 1954.4,1351.2 1921.2,1351.2C1888.1,1351.2 1861.1,1324.3 1861.1,1291.1C1861.1,1258 1888,1231 1921.2,1231C1954.3,1231.1 1981.2,1258 1981.3,1291.1Z" style="fill:rgb(3,4,4);fill-rule:nonzero;"/>
        <path d="M3126.1,831L3126.1,995.9L2925.8,995.9L2925.8,831C2925.8,775.7 2970.7,730.8 3026,730.8C3081.3,730.8 3126.1,775.7 3126.1,831Z" style="fill:rgb(3,4,4);fill-rule:nonzero;"/>
        <rect x="2925.8" y="1073.5" width="200.3" height="1755.2" style="fill:rgb(3,4,4);fill-rule:nonzero;"/>
        <path d="M3105.3,2906.1L3025.9,3085.2L2946.6,2906.1L3105.3,2906.1Z" style="fill:rgb(3,4,4);fill-rule:nonzero;"/>
        <rect x="1149.2" y="2670.5" width="117.7" height="117.7" style="fill:rgb(3,4,4);fill-rule:nonzero;"/>
        <rect x="2276.1" y="2670.5" width="117.6" height="117.7" style="fill:rgb(3,4,4);fill-rule:nonzero;"/>
    </g>
</svg>
