<?xml version="1.0" encoding="UTF-8" standalone="no"?>
<!DOCTYPE svg PUBLIC "-//W3C//DTD SVG 1.1//EN" "http://www.w3.org/Graphics/SVG/1.1/DTD/svg11.dtd">
<svg width="100%" height="100%" viewBox="0 0 400 400" version="1.1" xmlns="http://www.w3.org/2000/svg" xmlns:xlink="http://www.w3.org/1999/xlink" xml:space="preserve" xmlns:serif="http://www.serif.com/" style="fill-rule:evenodd;clip-rule:evenodd;stroke-linejoin:round;stroke-miterlimit:2;">
    <g transform="matrix(0.103279,0,0,0.103279,0,0)">
        <path d="M1936.5,107.6C928,107.6 107.6,928 107.6,1936.5C107.6,2945 928,3765.4 1936.5,3765.4C2945,3765.4 3765.4,2945 3765.4,1936.5C3765.4,928 2945,107.6 1936.5,107.6ZM1936.5,3873C1675.1,3873 1421.5,3821.8 1182.7,3720.8C952.1,3623.3 745,3483.7 567.2,3305.8C389.4,3127.9 249.7,2920.8 152.2,2690.3C51.2,2451.5 0,2197.9 0,1936.5C0,1675.1 51.2,1421.5 152.2,1182.7C249.7,952.1 389.3,745 567.2,567.2C745.1,389.4 952.2,249.7 1182.7,152.2C1421.5,51.201 1675.1,0 1936.5,0C2197.9,0 2451.5,51.201 2690.3,152.2C2920.9,249.7 3128,389.3 3305.8,567.2C3483.6,745.1 3623.3,952.2 3720.8,1182.7C3821.8,1421.5 3873,1675.1 3873,1936.5C3873,2197.9 3821.8,2451.5 3720.8,2690.3C3623.3,2920.9 3483.7,3128 3305.8,3305.8C3127.9,3483.6 2920.8,3623.3 2690.3,3720.8C2451.5,3821.8 2197.9,3873 1936.5,3873Z" style="fill:rgb(3,4,4);fill-rule:nonzero;"/>
        <path d="M2810,2178.3C2810,2193.6 2797.6,2206 2782.3,2206L2482.7,2206L2482.7,2541.5L2782.3,2541.5C2797.6,2541.5 2810,2553.9 2810,2569.2L2810,2972C2810,2987.3 2797.6,2999.7 2782.3,2999.7L2127.8,2999.7C2112.5,2999.7 2100.1,2987.3 2100.1,2972L2100.1,2569.1C2100.1,2553.8 2112.5,2541.4 2127.8,2541.4L2427.4,2541.4L2427.4,2205.9L2127.8,2205.9C2112.5,2205.9 2100.1,2193.5 2100.1,2178.2L2100.1,1775.3C2100.1,1760 2112.5,1747.6 2127.8,1747.6L2427.4,1747.6L2427.4,1451.7L1445.7,1451.7L1445.7,1747.6L1745.3,1747.6C1760.6,1747.6 1773,1760 1773,1775.3L1773,2178.2C1773,2193.5 1760.6,2205.9 1745.3,2205.9L1445.6,2205.9L1445.6,2541.4L1745.2,2541.4C1760.5,2541.4 1772.9,2553.8 1772.9,2569.1L1772.9,2972C1772.9,2987.3 1760.5,2999.7 1745.2,2999.7L1090.7,2999.7C1075.4,2999.7 1063,2987.3 1063,2972L1063,2569.1C1063,2553.8 1075.4,2541.4 1090.7,2541.4L1390.3,2541.4L1390.3,2205.9L1090.7,2205.9C1075.4,2205.9 1063,2193.5 1063,2178.2L1063,1775.3C1063,1760 1075.4,1747.6 1090.7,1747.6L1390.3,1747.6L1390.3,1424C1390.3,1408.7 1402.7,1396.3 1418,1396.3L2455,1396.3C2470.3,1396.3 2482.7,1408.7 2482.7,1424L2482.7,1747.6L2782.3,1747.6C2797.6,1747.6 2810,1760 2810,1775.3L2810,2178.3ZM767.1,1242.4L767.1,3052.7C767.6,3108.9 813.6,3154.1 869.8,3153.7L3003.1,3153.7C3059.3,3154.2 3105.3,3108.9 3105.8,3052.7L3105.8,1242.4L767.1,1242.4Z" style="fill:rgb(3,4,4);fill-rule:nonzero;"/>
        <rect x="2155.5" y="1803.1" width="599.2" height="347.6" style="fill:rgb(3,4,4);fill-rule:nonzero;"/>
        <rect x="2155.4" y="2596.7" width="599.2" height="347.6" style="fill:rgb(3,4,4);fill-rule:nonzero;"/>
        <rect x="1118.3" y="2596.7" width="599.2" height="347.6" style="fill:rgb(3,4,4);fill-rule:nonzero;"/>
        <rect x="1118.4" y="1803.1" width="599.2" height="347.6" style="fill:rgb(3,4,4);fill-rule:nonzero;"/>
        <path d="M2926.9,980.8L2290.7,980.8C2275.4,980.8 2263,968.4 2263,953.1C2263,937.8 2275.4,925.4 2290.7,925.4L2926.9,925.4C2942.2,925.4 2954.6,937.8 2954.6,953.1C2954.6,968.4 2942.2,980.8 2926.9,980.8ZM1916.2,1095C1837.8,1094.9 1774.4,1031.3 1774.5,952.9C1774.6,874.5 1838.2,811.1 1916.6,811.2C1994.9,811.3 2058.3,874.7 2058.3,953C2058.1,1031.5 1994.6,1095 1916.2,1095ZM1488.1,1095C1409.7,1095 1346.3,1031.5 1346.3,953.2C1346.3,874.9 1409.8,811.4 1488.1,811.4C1566.5,811.4 1629.9,874.9 1629.9,953.2C1629.8,1031.4 1566.5,1094.9 1488.3,1095L1488.1,1095ZM1060.1,1095C981.7,1095 918.3,1031.5 918.3,953.2C918.3,874.9 981.8,811.4 1060.1,811.4C1138.5,811.4 1201.9,874.9 1201.9,953.2C1201.8,1031.5 1138.4,1094.9 1060.1,1095ZM3003.2,719.3L869.8,719.3C813.6,718.8 767.6,764.1 767.1,820.3L767.1,1187.1L3106,1187.1L3106,820.3C3105.3,764 3059.4,718.8 3003.2,719.3Z" style="fill:rgb(3,4,4);fill-rule:nonzero;"/>
        <path d="M1146.6,953.1C1146.6,1000.9 1107.9,1039.6 1060.1,1039.6C1012.3,1039.6 973.6,1000.9 973.6,953.1C973.6,905.3 1012.3,866.6 1060.1,866.6C1107.9,866.7 1146.5,905.4 1146.6,953.1Z" style="fill:rgb(3,4,4);fill-rule:nonzero;"/>
        <path d="M1574.6,953.1C1574.6,1000.9 1535.9,1039.6 1488.1,1039.6C1440.3,1039.6 1401.6,1000.9 1401.6,953.1C1401.6,905.3 1440.3,866.6 1488.1,866.6L1488.3,866.6C1536,866.7 1574.6,905.5 1574.6,953.1Z" style="fill:rgb(3,4,4);fill-rule:nonzero;"/>
        <path d="M2002.9,953.1C2002.9,1000.9 1964.2,1039.6 1916.4,1039.6C1868.6,1039.6 1829.9,1000.9 1829.9,953.1C1829.9,905.3 1868.6,866.6 1916.4,866.6C1964.1,866.7 2002.8,905.4 2002.9,953.1Z" style="fill:rgb(3,4,4);fill-rule:nonzero;"/>
    </g>
</svg>
