<?xml version="1.0" encoding="UTF-8" standalone="no"?>
<!DOCTYPE svg PUBLIC "-//W3C//DTD SVG 1.1//EN" "http://www.w3.org/Graphics/SVG/1.1/DTD/svg11.dtd">
<svg width="100%" height="100%" viewBox="0 0 400 400" version="1.1" xmlns="http://www.w3.org/2000/svg" xmlns:xlink="http://www.w3.org/1999/xlink" xml:space="preserve" xmlns:serif="http://www.serif.com/" style="fill-rule:evenodd;clip-rule:evenodd;stroke-linejoin:round;stroke-miterlimit:2;">
    <g transform="matrix(0.103279,0,0,0.103279,0,0)">
        <g opacity="0.98">
            <path d="M1936.5,107.6C928,107.6 107.6,928 107.6,1936.5C107.6,2945 928,3765.4 1936.5,3765.4C2945,3765.4 3765.4,2945 3765.4,1936.5C3765.4,928 2945,107.6 1936.5,107.6ZM1936.5,3873C1675.1,3873 1421.5,3821.8 1182.7,3720.8C952.1,3623.3 745,3483.7 567.2,3305.8C389.4,3127.9 249.7,2920.8 152.2,2690.3C51.2,2451.5 0,2197.9 0,1936.5C0,1675.1 51.2,1421.5 152.2,1182.7C249.7,952.1 389.3,745 567.2,567.2C745.1,389.4 952.2,249.7 1182.7,152.2C1421.5,51.201 1675.1,0 1936.5,0C2197.9,0 2451.5,51.201 2690.3,152.2C2920.9,249.7 3128,389.3 3305.8,567.2C3483.6,745.1 3623.3,952.2 3720.8,1182.7C3821.8,1421.5 3873,1675.1 3873,1936.5C3873,2197.9 3821.8,2451.5 3720.8,2690.3C3623.3,2920.9 3483.7,3128 3305.8,3305.8C3127.9,3483.6 2920.8,3623.3 2690.3,3720.8C2451.5,3821.8 2197.9,3873 1936.5,3873Z" style="fill:rgb(3,4,4);fill-rule:nonzero;"/>
            <path d="M2325.4,3052.9L2325.4,3153.7L1547.6,3153.7L1547.6,3052.9C1547.7,2997.2 1592.8,2952.1 1648.4,2952.1L2224.6,2952.1C2280.2,2952.2 2325.3,2997.3 2325.4,3052.9Z" style="fill:rgb(3,4,4);fill-rule:nonzero;"/>
            <rect x="1758.1" y="2605.6" width="356.7" height="291.2" style="fill:rgb(3,4,4);fill-rule:nonzero;"/>
            <path d="M3130.3,1426.1L3130.3,2405.9C3130.3,2485.5 3046.7,2550.2 2943.9,2550.2L929.1,2550.2C826.3,2550.2 742.7,2485.4 742.7,2405.9L742.7,1426.1C742.7,1346.5 826.3,1281.8 929.1,1281.8L949.1,1281.8L949.1,2145.4C949.2,2209.2 1000.8,2260.8 1064.6,2260.9L2808.4,2260.9C2872.2,2260.8 2923.8,2209.2 2923.9,2145.4L2923.9,1281.8L2943.9,1281.8C3046.7,1281.9 3130.3,1346.6 3130.3,1426.1Z" style="fill:rgb(3,4,4);fill-rule:nonzero;"/>
            <path d="M2680.5,1688.3L2292.7,1980.1C2280.4,1989.3 2263.1,1986.8 2254,1974.6C2244.8,1962.3 2247.3,1945 2259.5,1935.9L2617.9,1666.2L2259.5,1396.5C2247.2,1387.3 2244.8,1370 2254,1357.8C2263.2,1345.5 2280.5,1343.1 2292.7,1352.3L2680.5,1644.2C2692.8,1653.4 2695.2,1670.7 2686,1682.9C2684.5,1684.8 2682.6,1686.6 2680.5,1688.3ZM2101.4,1946.6C2088.2,1954.2 2071.4,1949.6 2063.7,1936.5L1761.5,1413C1753.9,1399.7 1758.6,1382.8 1771.9,1375.3C1785.1,1367.8 1801.8,1372.3 1809.4,1385.4L2111.5,1908.9C2119.2,1922 2114.6,1939 2101.4,1946.6ZM1613.6,1936C1625.9,1945.2 1628.3,1962.5 1619.1,1974.7C1609.9,1987 1592.6,1989.4 1580.4,1980.2L1192.6,1688.4C1180.3,1679.2 1177.9,1661.9 1187.1,1649.7C1188.7,1647.6 1190.5,1645.8 1192.6,1644.2L1580.4,1352.3C1592.7,1343.1 1610,1345.6 1619.1,1357.8C1628.3,1370.1 1625.8,1387.4 1613.6,1396.5L1255.2,1666.2L1613.6,1936ZM1004.4,1126.6L1004.4,2145.5C1004.4,2178.7 1031.3,2205.6 1064.6,2205.7L2808.4,2205.7C2841.6,2205.7 2868.5,2178.8 2868.6,2145.5L2868.6,1126.6L1004.4,1126.6Z" style="fill:rgb(3,4,4);fill-rule:nonzero;"/>
            <path d="M2483.8,998.5C2426.8,998.5 2380.5,952.4 2380.5,895.3C2380.5,838.3 2426.6,792 2483.7,792C2540.7,792 2587,838.1 2587,895.2L2587,895.3C2587,952.3 2540.7,998.4 2483.8,998.5ZM2186.3,998.5C2129.3,998.5 2083,952.4 2083,895.3C2083,838.3 2129.1,792 2186.2,792C2243.2,792 2289.5,838.1 2289.5,895.2L2289.5,895.3C2289.4,952.3 2243.2,998.4 2186.3,998.5ZM1917.2,923L1147.3,923C1132,923 1119.6,910.6 1119.6,895.3C1119.6,880 1132,867.6 1147.3,867.6L1917.2,867.6C1932.5,867.6 1944.9,880 1944.9,895.3C1944.9,910.6 1932.5,923 1917.2,923ZM2808.4,719.3L1064.6,719.3C1031.4,719.3 1004.5,746.2 1004.4,779.5L1004.4,1071.3L2868.5,1071.3L2868.5,779.5C2868.5,746.2 2841.6,719.3 2808.4,719.3Z" style="fill:rgb(3,4,4);fill-rule:nonzero;"/>
            <path d="M2531.7,895.3C2531.7,921.7 2510.2,943.1 2483.8,943.1C2457.4,943.1 2436,921.6 2436,895.2C2436,868.8 2457.5,847.4 2483.9,847.4C2510.3,847.4 2531.7,868.8 2531.7,895.3Z" style="fill:rgb(3,4,4);fill-rule:nonzero;"/>
            <path d="M2234.1,895.3C2234.1,921.7 2212.6,943.1 2186.2,943.1C2159.8,943.1 2138.4,921.6 2138.4,895.2C2138.4,868.8 2159.9,847.4 2186.3,847.4C2212.7,847.4 2234.1,868.8 2234.1,895.3Z" style="fill:rgb(3,4,4);fill-rule:nonzero;"/>
        </g>
    </g>
</svg>
