<?xml version="1.0" encoding="UTF-8" standalone="no"?>
<!DOCTYPE svg PUBLIC "-//W3C//DTD SVG 1.1//EN" "http://www.w3.org/Graphics/SVG/1.1/DTD/svg11.dtd">
<svg width="100%" height="100%" viewBox="0 0 400 392" version="1.1" xmlns="http://www.w3.org/2000/svg" xmlns:xlink="http://www.w3.org/1999/xlink" xml:space="preserve" xmlns:serif="http://www.serif.com/" style="fill-rule:evenodd;clip-rule:evenodd;stroke-linejoin:round;stroke-miterlimit:2;">
    <g transform="matrix(1,0,0,1,-1.8735e-14,-4.05611)">
        <g transform="matrix(1.25161,0,0,1.25161,-40.566,-36.6118)">
            <path d="M174.4,33.6C100.8,41.6 41.6,100.8 33.6,172.8C24,252.8 73.6,321.6 144,344L144,307.2C144,307.2 137.6,308.8 129.6,308.8C107.2,308.8 97.6,289.6 96,278.4C94.4,272 91.2,267.2 86.4,262.4C81.6,260.8 80,260.8 80,259.2C80,256 84.8,256 86.4,256C96,256 104,267.2 107.2,272C115.2,284.8 124.8,288 129.6,288C136,288 140.8,286.4 144,284.8C145.6,273.6 150.4,262.4 160,256C123.2,248 96,227.2 96,192C96,174.4 104,156.8 115.2,144C113.6,140.8 112,132.8 112,121.6C112,115.2 112,105.6 116.8,96C116.8,96 139.2,96 161.6,116.8C169.6,113.6 180.8,112 192,112C203.2,112 214.4,113.6 224,116.8C244.8,96 268.8,96 268.8,96C272,105.6 272,115.2 272,121.6C272,134.4 270.4,140.8 268.8,144C280,156.8 288,172.8 288,192C288,227.2 260.8,248 224,256C233.6,264 240,278.4 240,292.8L240,345.6C305.6,324.8 352,264 352,193.6C352,97.6 270.4,22.4 174.4,33.6Z" style="fill:white;fill-rule:nonzero;"/>
        </g>
    </g>
</svg>
