<?xml version="1.0" encoding="UTF-8" standalone="no"?>
<!DOCTYPE svg PUBLIC "-//W3C//DTD SVG 1.1//EN" "http://www.w3.org/Graphics/SVG/1.1/DTD/svg11.dtd">
<svg width="100%" height="100%" viewBox="0 0 400 400" version="1.1" xmlns="http://www.w3.org/2000/svg" xmlns:xlink="http://www.w3.org/1999/xlink" xml:space="preserve" xmlns:serif="http://www.serif.com/" style="fill-rule:evenodd;clip-rule:evenodd;stroke-linejoin:round;stroke-miterlimit:2;">
    <g transform="matrix(1.13636,0,0,1.13636,-72.7273,-72.7273)">
        <path d="M96,64C78.32,64 64,78.32 64,96L64,384C64,401.68 78.32,416 96,416L384,416C401.68,416 416,401.68 416,384L416,96C416,78.32 401.68,64 384,64L96,64ZM138.375,144L212.156,144L255.219,205.562L308.5,144L331.719,144L265.656,220.5L346.469,336L272.688,336L224.906,267.688L165.906,336L142.312,336L214.406,252.719L138.375,144ZM174.062,162.938L282.125,316.969L310.75,316.969L202.656,162.938L174.062,162.938Z" style="fill:white;fill-rule:nonzero;"/>
    </g>
</svg>
