<?xml version="1.0" encoding="UTF-8" standalone="no"?>
<!DOCTYPE svg PUBLIC "-//W3C//DTD SVG 1.1//EN" "http://www.w3.org/Graphics/SVG/1.1/DTD/svg11.dtd">
<svg width="100%" height="100%" viewBox="0 0 400 400" version="1.1" xmlns="http://www.w3.org/2000/svg" xmlns:xlink="http://www.w3.org/1999/xlink" xml:space="preserve" xmlns:serif="http://www.serif.com/" style="fill-rule:evenodd;clip-rule:evenodd;stroke-linejoin:round;stroke-miterlimit:2;">
    <g id="icons8-blender.svg" transform="matrix(0.903803,0,0,0.903803,200,200)">
        <g transform="matrix(1,0,0,1,-240,-240)">
            <path d="M349.32,224.78C337.69,215.6 322.06,210.01 305,210C287.94,210.01 272.3,215.6 260.67,224.78C248.83,234.13 240.98,247.3 240.08,262.25C239.17,277.61 245.78,291.9 257.4,302.48C269.25,313.24 286.13,320 305.01,320C323.88,320 340.75,313.24 352.58,302.47C364.2,291.9 370.82,277.61 369.92,262.24C369.02,247.31 361.16,234.13 349.32,224.78Z" style="fill:rgb(1,87,155);fill-rule:nonzero;"/>
            <path d="M458.71,259.32C456.12,241.09 449.8,223.97 440.1,208.37C431.19,194.04 419.75,181.49 406.13,170.92L406.15,170.9L405.78,170.78C405.5,170.53 405.28,170.24 404.99,170L262.49,64.38C253.89,57.49 241.29,58.86 234.38,67.51C227.48,76.13 228.87,88.72 237.51,95.62L297.39,140L105,140C91.25,140 80,151.25 80,165C80,178.75 91.25,190 105,190L176.54,190L28.73,316.02C18.25,325 17.03,340.8 26.02,351.27C30.97,357.04 37.97,360 45.01,360C50.77,360 56.55,358.02 61.27,353.98L150.81,277.23C150.59,285.3 150.42,292.61 150.46,294.84C150.46,330 190,420 306.82,420C390,420 459.62,370 459.62,287.39C460.34,278.05 460.03,268.67 458.71,259.32ZM395.25,291.53C391.24,302.4 384.75,312.57 375.9,321.45C357.8,339.65 332.47,349.95 305.02,349.99C277.57,350.04 252.22,339.82 234.11,321.67C225.26,312.82 218.76,302.66 214.74,291.81C210.82,281.16 209.29,269.86 210.3,258.46C211.28,247.3 214.62,236.67 220.01,227.05C225.3,217.59 232.58,209.05 241.55,201.81C259.15,187.67 281.54,180.02 305,179.99C328.46,179.96 350.84,187.55 368.45,201.63C377.42,208.83 384.69,217.34 389.97,226.78C395.36,236.39 398.71,247.01 399.7,258.16C400.7,269.58 399.18,280.87 395.25,291.53Z" style="fill:rgb(255,109,0);fill-rule:nonzero;"/>
        </g>
    </g>
</svg>
