<svg xmlns="http://www.w3.org/2000/svg"  viewBox="0 0 100 100" width="400px" height="400px"><path fill="#8e9cb3" d="M21.434,75.715c7.144,7.413,23.253-2.401,38.685-16.862s21.553-31.927,16.073-37.541 c-6.51-6.67-22.925,1.445-38.357,15.905S14.967,69.004,21.434,75.715z"/><path fill="#a2b4cc" d="M23.459,77.748c0,0,2.794,4.387,8.202,4.329s18.165-3.473,37.982-26.009s9.468-31.79,9.468-31.79 l-1.739-1.285c0,0,5.151,13.941-16.757,35.275C36.835,82.901,23.459,77.748,23.459,77.748z"/><path fill="#f9e65c" d="M75.12,28.48c-0.16,2.99-1.5,6.79-3.81,11l-1.647,3.235L68.39,41.46c0.2-2.63-0.38-4.84-1.84-6.33 l8.375-9.471C75.335,26.179,74.86,27.81,75.12,28.48z"/><path fill="#ae5ca3" d="M35.12,70.23l-4.03,4.5c-3.36,0.78-6.04,0.46-7.63-1.13c-0.32-0.32-0.59-0.68-0.8-1.09l8.61-5.85 c0.47,1.16,1.23,2.13,2.28,2.82C34.02,69.8,34.55,70.04,35.12,70.23z"/><path fill="#c26dab" d="M31.27,66.66l-8.61,5.85c-1.36-2.51-0.78-6.58,1.36-11.45l7.39-2.17 C30.53,61.91,30.46,64.6,31.27,66.66z"/><path fill="#78a1d1" d="M36.48,49.14c-2.47,3.36-4.19,6.72-5.07,9.75l-7.39,2.17c1.77-4.02,4.62-8.59,8.33-13.26 L36.48,49.14z"/><path fill="#60bd91" d="M47.41,38.44c-2.69,1.88-5.36,4.2-7.81,6.89c-1.14,1.25-2.19,2.53-3.12,3.81l-4.13-1.34 c1.47-1.84,3.06-3.69,4.78-5.54c2.36-2.55,5.01-5.1,7.95-7.66c0.45-0.39,0.9-0.77,1.35-1.14L47.41,38.44z"/><path fill="#8cc78c" d="M63.325,23.363l-4.194,9.914c-3.521,0.513-7.646,2.319-11.723,5.163l-1.081-5.484 C52.053,29.08,58.471,24.594,63.325,23.363z"/><polygon fill="#a2b4cc" points="51.389,53.007 50.418,53.658 50.391,53.683 49.869,54.036 49.226,54.472 50.055,53.541 49.822,53.467 50.155,53.37 50.164,53.359 50.278,53.111 50.313,53.259 50.303,53.262 50.315,53.314" opacity=".3"/><path fill="#a6e6a7" d="M59.132,33.277l-3.448,7.735c-2.13,0.546-4.601,1.853-7.042,3.743l-1.233-6.314 C51.485,35.596,55.611,33.79,59.132,33.277z"/><path fill="#e7f598" d="M66.547,35.129l-5.908,6.599c-0.154-0.148-0.326-0.283-0.506-0.406 c-1.086-0.712-2.638-0.79-4.449-0.31l3.448-7.735c2.55-0.368,4.785-0.054,6.448,1.048C65.938,34.563,66.26,34.828,66.547,35.129z"/><path fill="#fef598" d="M68.388,41.458l-6.962,4.728c0.395-1.907,0.156-3.481-0.786-4.457l5.908-6.599 C68.009,36.619,68.593,38.831,68.388,41.458z"/><path fill="#fae973" d="M68.39,41.46c-0.1,1.25-0.39,2.6-0.85,4.01c-0.82,1.17-1.7,2.36-2.65,3.55l-5.14,1.52 c0.85-1.55,1.42-3.03,1.68-4.35L68.39,41.46z"/><path fill="#f9cf75" d="M64.89,49.02c-1.9,2.41-4.03,4.85-6.37,7.26l-2.33-0.75c1.47-1.66,2.67-3.36,3.55-4.99h0.01 L64.89,49.02z"/><path fill="#fbb97f" d="M58.52,56.28c-0.36,0.37-0.73,0.75-1.11,1.13c-1.76,1.76-3.54,3.42-5.32,4.95l-0.49-2.5 c1.43-1.1,2.84-2.39,4.18-3.86c0.14-0.15,0.28-0.31,0.41-0.47L58.52,56.28z"/><path fill="#f27e97" d="M45.78,63.19l-2.65,5.93l-0.34,0.77c-0.52,0.16-1.03,0.29-1.53,0.4c-2.31,0.51-4.41,0.52-6.14-0.06 L41,63.65h0.01C42.28,64.06,43.94,63.87,45.78,63.19z"/><path fill="#d476b9" d="M40.995,63.651l-5.879,6.583c-0.563-0.19-1.096-0.434-1.571-0.755 c-1.049-0.693-1.804-1.658-2.271-2.82l7.597-5.153c0.227,0.739,0.647,1.331,1.274,1.746C40.401,63.422,40.692,63.557,40.995,63.651 z"/><path fill="#d485ba" d="M38.871,61.506l-7.597,5.153c-0.817-2.056-0.747-4.752,0.133-7.768l7.974-2.35 C38.668,58.478,38.47,60.21,38.871,61.506z"/><path fill="#9dc4e8" d="M42.454,51.078c-1.405,1.886-2.436,3.758-3.073,5.464l-7.974,2.35 c0.887-3.036,2.606-6.395,5.07-9.755L42.454,51.078z"/><path fill="#84d6af" d="M47.409,38.44l1.233,6.314c-1.42,1.088-2.815,2.373-4.13,3.815 c-0.756,0.831-1.446,1.666-2.059,2.509l-5.977-1.941c0.932-1.278,1.983-2.556,3.126-3.809 C42.051,42.635,44.716,40.315,47.409,38.44z"/><polygon fill="#d3dff1" points="51.389,53.007 50.418,53.658 50.391,53.683 49.869,54.036 49.226,54.472 50.055,53.541 49.822,53.467 50.155,53.37 50.164,53.359 50.278,53.111 50.313,53.259 50.303,53.262 50.315,53.314" opacity=".3"/><path fill="#c1ddf1" d="M49.822,53.467l-10.44,3.076c0.637-1.706,1.667-3.578,3.073-5.464L49.822,53.467z"/><path fill="#aae6c8" d="M48.642,44.754l1.636,8.356l-0.115,0.248l-0.008,0.011l-0.334,0.097l-7.368-2.388 c0.612-0.844,1.303-1.678,2.059-2.509C45.828,47.128,47.223,45.843,48.642,44.754z"/><path fill="#edf5bf" d="M60.639,41.728L50.311,53.251l-0.033-0.14l5.406-12.099c1.811-0.48,3.363-0.402,4.449,0.31 C60.313,41.445,60.485,41.58,60.639,41.728z"/><path fill="#fff9b8" d="M61.425,46.185l-10.018,6.808l-0.018,0.013l-1.073,0.307l-0.012-0.052l0.01-0.002l-0.002-0.009 L60.64,41.728C61.581,42.704,61.821,44.278,61.425,46.185z"/><path fill="#fef6aa" d="M61.425,46.185c-0.252,1.321-0.824,2.8-1.68,4.354l-0.01,0.002l-8.328,2.451L61.425,46.185z"/><path fill="#f9dea2" d="M59.735,50.542c-0.873,1.623-2.073,3.323-3.542,4.985l-5.776-1.868l0.971-0.651l0.018-0.013 L59.735,50.542z"/><path fill="#fdd4b2" d="M56.194,55.527c-0.135,0.161-0.27,0.321-0.418,0.476c-1.331,1.464-2.747,2.753-4.175,3.853 l-1.21-6.172l0.027-0.025L56.194,55.527z"/><path fill="#f5b0b6" d="M50.391,53.683l1.21,6.172c-1.985,1.534-3.996,2.678-5.819,3.336l4.087-9.156L50.391,53.683z"/><path fill="#f2a0b2" d="M49.869,54.036l-4.087,9.156c-1.839,0.68-3.503,0.868-4.777,0.458l8.22-9.177L49.869,54.036z"/><path fill="#e6a3ce" d="M49.226,54.472l-8.22,9.177l-0.01,0.002c-0.303-0.095-0.594-0.229-0.85-0.399 c-0.627-0.415-1.047-1.007-1.274-1.746L49.226,54.472z"/><polygon fill="#fff" points="51.389,53.007 50.418,53.658 50.391,53.683 49.869,54.036 49.226,54.472 50.055,53.541 49.822,53.467 50.155,53.37 50.164,53.359 50.278,53.111 50.313,53.259 50.303,53.262 50.315,53.314" opacity=".3"/><path fill="#ee4267" d="M41.26,70.29c-3.74,2.23-7.22,3.76-10.17,4.44l4.03-4.5C36.85,70.81,38.95,70.8,41.26,70.29z"/><path fill="#f27c7c" d="M52.09,62.36c-3.03,2.62-6.06,4.89-8.96,6.76l2.65-5.93c1.82-0.66,3.84-1.8,5.82-3.33L52.09,62.36z"/><path fill="#e8acd5" d="M50.055,53.541l-0.83,0.931l-10.354,7.034c-0.401-1.297-0.203-3.029,0.51-4.964l10.44-3.076 L50.055,53.541z"/><path fill="#dce775" d="M74.925,25.659l-8.379,9.47c-0.287-0.301-0.608-0.566-0.967-0.805 c-1.663-1.102-3.898-1.416-6.448-1.048l4.194-9.914c4.414-1.128,7.475-1.817,9.446-0.511C73.295,23.198,74.538,25.16,74.925,25.659 z"/><path fill="#beebbf" d="M55.684,41.012l-5.406,12.099l-1.636-8.356C51.084,42.865,53.554,41.558,55.684,41.012z"/><ellipse cx="47.889" cy="47.942" fill="#d3dff1" rx="10.648" ry="5.063" transform="rotate(-43.139 47.89 47.94)"/><path fill="#a2b4cc" d="M41.177,56.156c0,0,5.843,0.549,10.712-5.244s4.292-9.242,4.292-9.242l1.574,1.322 c0,0,2.213,4.802-4.098,10.335s-9.985,4.921-9.985,4.921L41.177,56.156z"/><path fill="#d3dff1" d="M71.624,55.055l3.523-4.978c0,0,6.165,9.161,6.495,14.886s-2.147,8.842-3.523,10.063 c0.46-3.527-0.936-9.602-2.367-12.475C74.321,59.679,71.624,55.055,71.624,55.055z"/><path fill="#8e9cb3" d="M56.906,69.776c0,0,10.396,7.289,20.466,4.803c-1.931,6.663-9.945,6.325-16.278,3.87 s-9.089-4.99-9.089-4.99L56.906,69.776z"/><path fill="#a2b4cc" d="M62.844,64.55l8.917,10.982c0,0-0.138,1.149-0.661,1.607s-1.651,0.44-1.651,0.44L60.615,66.67 L62.844,64.55z"/><path fill="#a2b4cc" d="M29.279,22.148l19.693,24.815c0,0-0.11,0.844-0.798,1.358s-1.706,0.238-1.706,0.238L25.284,22.148 H29.279z"/><path fill="#a2b4cc" d="M21.752,23.363c0,0-1.139,5.082,2.872,12.967s5.619,9.218,5.619,9.218l-3.627,4.882 c0,0-5.742-6.915-7.968-15.019S19.856,24.144,21.752,23.363z"/><path fill="#d3dff1" d="M21.752,22.852c0,0,9.889-6.127,32.862,13.102c6.709,5.567,13.321,13.879,13.321,13.879l3.688-5.182 c0,0-10.778-13.211-23.747-21.358c-6.363-4.073-17.85-8.202-22.593-4.734L21.752,22.852z"/><path fill="#1f212b" d="M80.133,42.129c3.615-7.919,3.666-14.22,0.144-17.742l-3.822-3.822	c-1.741-1.742-4.134-2.625-7.108-2.625c-4.824,0-11.338,2.52-18.349,7.095c-3.408-2.332-6.787-4.26-10.002-5.68	c-7.89-3.482-14.1-3.45-17.029,0.079l-4.279,4.845c-0.107,0.117-0.215,0.233-0.314,0.356l-0.052,0.059	c-0.014,0.016-0.019,0.036-0.031,0.053c-1.184,1.524-1.791,3.472-1.791,5.819c0,5.114,2.926,11.969,8.242,19.367	c-2.036,2.991-3.741,5.949-5.034,8.779c-3.615,7.919-3.666,14.22-0.144,17.742l3.822,3.822c1.74,1.741,4.133,2.624,7.109,2.625	c5.464,0,12.818-3.165,20.444-8.534c2.288,1.394,4.535,2.589,6.684,3.537c4.011,1.771,7.591,2.657,10.588,2.657	c2.854,0,5.181-0.805,6.846-2.414c0.275-0.266,0.519-0.554,0.749-0.853c0.008-0.008,0.02-0.012,0.027-0.021l3.368-3.986	c1.603-2.087,1.916-3.998,1.917-6.594c0-4.431-2.284-10.339-6.414-16.686C77.475,47.324,78.97,44.675,80.133,42.129z M69.346,19.939	c2.426,0,4.341,0.687,5.694,2.039l1.793,1.793c1.411,3.254,0.781,8.068-1.887,13.912c-0.952,2.083-2.133,4.24-3.51,6.429	c-0.437-0.548-0.879-1.095-1.335-1.64c1.179-1.919,2.199-3.81,3.026-5.62c2.922-6.398,3.233-11.434,0.854-13.813	c-1.062-1.062-2.62-1.6-4.634-1.6c-3.927,0-9.354,2.059-15.292,5.791c-0.43-0.323-0.86-0.64-1.29-0.952	C59.19,22.189,65.054,19.939,69.346,19.939z M63.149,35.017c-2.68-2.592-5.451-4.987-8.237-7.136	c5.65-3.504,10.763-5.441,14.433-5.441c1.738,0,3.06,0.439,3.927,1.307c2.067,2.068,1.683,6.693-1.057,12.69	c-0.769,1.686-1.715,3.446-2.8,5.234C67.477,39.41,65.386,37.18,63.149,35.017z M24.726,20.084	c2.634-3.172,8.417-3.103,15.865,0.185c6.967,3.077,14.731,8.57,21.863,15.467c3.094,2.993,5.918,6.107,8.412,9.262	c-0.879,1.351-1.83,2.711-2.849,4.073c-2.5-3.15-5.318-6.26-8.408-9.248c-7.215-6.977-15.083-12.539-22.154-15.662	c-5.977-2.638-10.994-3.306-14.554-2.009L24.726,20.084z M22.27,23.523c0.789-0.421,1.682-0.711,2.673-0.871l11.579,14.343	c-2.373,2.388-4.581,4.846-6.591,7.323c-5.089-7.141-7.891-13.709-7.891-18.558C22.04,24.964,22.12,24.215,22.27,23.523z M42.937,44.941c-3.673,4.167-4.931,8.771-2.911,10.791l2.049,2.049c0.65,0.65,1.562,0.979,2.666,0.979	c0.781,0,1.66-0.165,2.609-0.496c2.171-0.757,4.498-2.306,6.553-4.361c2.056-2.055,3.604-4.382,4.361-6.553	c0.8-2.291,0.628-4.165-0.482-5.275l-2.049-2.049c-1.875-1.875-5.911-0.979-9.884,2.154l-3.605-4.466	c2.161-2.021,4.387-3.917,6.626-5.638c3.39,2.47,6.784,5.311,10.046,8.466c2.34,2.263,4.523,4.596,6.53,6.962	c-2.452,3.255-5.261,6.476-8.363,9.578C46.615,67.547,34.797,74.579,27.674,74.579c-1.74-0.001-3.062-0.44-3.928-1.307	c-2.068-2.067-1.684-6.693,1.057-12.69c2.895-6.342,8.064-13.451,14.565-20.061L42.937,44.941z M49.492,47.219	c0.064-0.25,0.006-0.519-0.156-0.719l-2.86-3.543c3.457-2.718,7.097-3.678,8.55-2.225c1.771,1.771-0.005,6.54-3.879,10.414	s-8.643,5.65-10.414,3.879c-1.596-1.596-0.34-5.623,2.842-9.295l2.654,3.287c0.153,0.191,0.391,0.306,0.637,0.306	c0.003,0,0.006,0,0.009,0C48.223,49.308,49.128,48.582,49.492,47.219z M57.074,42.781c0.812,0.812,0.901,2.357,0.245,4.239	c-0.708,2.031-2.173,4.224-4.124,6.175s-4.144,3.416-6.175,4.124c-1.883,0.657-3.428,0.566-4.239-0.245l-0.386-0.386	c0.1,0.006,0.193,0.023,0.296,0.023c0.781,0,1.659-0.165,2.609-0.496c2.17-0.757,4.497-2.306,6.553-4.361	c3.22-3.22,4.987-6.857,4.839-9.454L57.074,42.781z M41.613,36.934l-0.947-1.173c1.978-1.846,4.014-3.594,6.057-5.195	c0.437,0.297,0.873,0.583,1.311,0.893C45.864,33.14,43.708,34.978,41.613,36.934z M39.407,34.202l-9.164-11.35	c2.066,0.4,4.344,1.136,6.807,2.222c2.559,1.13,5.227,2.592,7.93,4.324C43.101,30.896,41.23,32.506,39.407,34.202z M28.773,22.622	l19.726,24.434c-0.248,0.836-0.73,1.23-1.549,1.266l-20.829-25.8C26.949,22.474,27.837,22.511,28.773,22.622z M21.979,75.04	c-2.89-2.89-2.694-8.394,0.549-15.498c3.051-6.677,8.461-14.11,15.258-20.981l0.949,1.176c-6.62,6.714-11.888,13.958-14.842,20.429	c-2.923,6.399-3.234,11.434-0.854,13.813c1.061,1.061,2.62,1.599,4.636,1.6c7.37,0,19.472-7.149,30.113-17.791	c3.076-3.076,5.863-6.269,8.309-9.497c0.441,0.533,0.877,1.066,1.3,1.602c-2.412,3.143-5.17,6.284-8.195,9.309	C48.039,70.365,35.663,77.579,27.673,77.579c-1.481-0.001-2.779-0.254-3.896-0.741L21.979,75.04z M18.5,30.565	c0-2.157,0.554-3.929,1.641-5.289l0.329-0.373c0.083-0.089,0.159-0.182,0.247-0.267c0.132-0.128,0.276-0.242,0.418-0.358	c-0.058,0.478-0.095,0.97-0.095,1.482c0,5.108,2.926,11.969,8.239,19.366c-1.038,1.31-2.019,2.623-2.937,3.932	C21.281,41.941,18.5,35.406,18.5,30.565z M31.495,80.901c-2.426-0.001-4.342-0.687-5.694-2.039l-0.517-0.517	c0.747,0.149,1.54,0.233,2.39,0.233c8.242,0,20.895-7.328,32.235-18.67c4.749-4.749,8.85-9.785,12-14.683	c0.006-0.009,0.013-0.017,0.018-0.027c1.553-2.417,2.879-4.802,3.929-7.1c2.324-5.091,3.143-9.472,2.471-12.835l0.536,0.536	c2.89,2.89,2.694,8.394-0.549,15.498c-3.108,6.804-8.663,14.394-15.643,21.372C51.597,73.745,39.36,80.901,31.495,80.901z M77.342,73.743c-1.487,0.789-3.351,1.123-5.549,0.986c-0.03-0.003-0.054,0.007-0.082,0.009L63.596,64.56	c0.162-0.16,0.327-0.313,0.489-0.475c2.72-2.72,5.229-5.534,7.473-8.365c3.876,6.046,6.022,11.62,6.022,15.78	C77.579,72.303,77.494,73.047,77.342,73.743z M60.685,67.317l4.782,6.001c-0.944-0.33-1.907-0.695-2.898-1.133	c-1.52-0.671-3.101-1.475-4.71-2.384C58.804,69.004,59.746,68.172,60.685,67.317z M61.424,66.64	c0.486-0.452,0.969-0.915,1.452-1.381l8.373,10.503c-0.163,0.785-0.618,1.215-1.459,1.377L61.424,66.64z M59.028,76.99	c-1.993-0.88-4.075-1.98-6.197-3.253c1.398-1.013,2.801-2.101,4.203-3.254c1.752,1.003,3.476,1.886,5.129,2.616	c1.503,0.664,2.969,1.213,4.356,1.631c0.027,0.008,0.054,0.009,0.081,0.012l2.477,3.108c0.154,0.194,0.389,0.306,0.633,0.306	c0.041,0,0.082-0.003,0.123-0.009c1.373-0.219,2.186-0.989,2.415-2.29c0.007-0.037-0.006-0.075-0.004-0.113	c0.169,0.005,0.341,0.016,0.507,0.016c1.576,0,2.98-0.256,4.208-0.745c-0.369,0.929-0.899,1.738-1.598,2.414	C72.261,80.429,66.46,80.271,59.028,76.99z M81.119,66.694c-0.001,2.438-0.273,4.113-1.695,5.966l-1.109,1.312	c0.169-0.77,0.263-1.59,0.264-2.473c0-4.419-2.258-10.299-6.363-16.624c1.022-1.322,1.983-2.645,2.88-3.963	C78.973,56.958,81.119,62.536,81.119,66.694z"/></svg>