<?xml version="1.0" encoding="UTF-8" standalone="no"?>
<!DOCTYPE svg PUBLIC "-//W3C//DTD SVG 1.1//EN" "http://www.w3.org/Graphics/SVG/1.1/DTD/svg11.dtd">
<svg width="100%" height="100%" viewBox="0 0 1667 1667" version="1.1" xmlns="http://www.w3.org/2000/svg" xmlns:xlink="http://www.w3.org/1999/xlink" xml:space="preserve" xmlns:serif="http://www.serif.com/" style="fill-rule:evenodd;clip-rule:evenodd;stroke-linejoin:round;stroke-miterlimit:2;">
    <g transform="matrix(4.16667,0,0,4.16667,-166.667,-166.667)">
        <g>
            <path d="M240,40.5L240,40.5C130.558,40.5 40.5,130.558 40.5,240C40.5,349.442 130.558,439.5 240,439.5L240,439.5C349.442,439.5 439.5,349.442 439.5,240C439.5,130.558 349.442,40.5 240,40.5Z" style="fill:white;fill-rule:nonzero;"/>
            <path d="M80.01,240C80.01,303.36 116.81,358.06 170.19,384L93.85,174.88C84.98,194.79 80.01,216.76 80.01,240ZM348.04,231.94C348.04,212.17 337.41,198.44 331.34,187.82C323.21,174.53 315.58,163.45 315.58,150.3C315.58,135.65 330.29,121.9 345.99,121.9C346.7,121.9 347.34,121.96 348.05,121.98C319.61,95.84 281.68,80 240.01,80C186.12,80 138.48,106.66 109.49,147.49C111.77,148.23 112.56,147.88 115.6,147.88C132.29,147.88 158.24,145.88 158.24,145.88C166.84,145.31 167.89,158 159.23,159.04C159.23,159.04 150.59,160.09 140.95,160.56L200.26,338.34L235.26,233.33L209.23,160.85C200.62,160.39 192.44,159.33 192.44,159.33C183.82,158.77 184.82,145.58 193.42,146.17C193.42,146.17 219.9,148.17 235.59,148.17C252.34,148.17 278.23,146.17 278.23,146.17C286.84,145.6 287.88,158.29 279.27,159.33C279.27,159.33 270.57,160.38 260.95,160.85L319.86,336.95L335.85,283.69C343.99,262.89 348.04,245.69 348.04,231.94ZM242.81,253.96L194.81,393.48C209.17,397.74 224.31,400 240.01,400C258.62,400 276.5,396.76 293.17,390.93C292.77,390.22 292.32,389.5 291.99,388.73L242.81,253.96ZM380.43,163.18C381.14,168.28 381.51,173.77 381.51,179.63C381.51,195.91 378.45,214.14 369.32,237L320.47,378.35C368.05,350.63 400,299.02 400,240C400,212.19 392.89,186.04 380.43,163.18Z" style="fill:rgb(1,87,155);fill-rule:nonzero;"/>
            <path d="M40,240C40,350.24 129.7,440 239.99,440C350.3,440 440,350.24 440,240C440,129.76 350.3,40 240,40C129.7,40 40,129.76 40,240ZM59.95,240C59.95,140.76 140.69,60.01 239.99,60.01C339.29,60.01 420.05,140.76 420.05,240C420.05,339.24 339.29,420.01 240,420.01C140.72,420.01 59.95,339.24 59.95,240Z" style="fill:rgb(1,87,155);fill-rule:nonzero;"/>
        </g>
    </g>
</svg>
