<?xml version="1.0" encoding="UTF-8" standalone="no"?>
<!DOCTYPE svg PUBLIC "-//W3C//DTD SVG 1.1//EN" "http://www.w3.org/Graphics/SVG/1.1/DTD/svg11.dtd">
<svg width="100%" height="100%" viewBox="0 0 400 400" version="1.1" xmlns="http://www.w3.org/2000/svg" xmlns:xlink="http://www.w3.org/1999/xlink" xml:space="preserve" xmlns:serif="http://www.serif.com/" style="fill-rule:evenodd;clip-rule:evenodd;stroke-linejoin:round;stroke-miterlimit:2;">
    <g transform="matrix(0.285714,0,0,0.285714,-100,-100)">
        <path d="M674.023,933.789C674.023,941.602 678.464,948.737 685.474,952.187L1040.94,1127.19C1043.8,1128.59 1046.9,1129.3 1050,1129.3C1053.1,1129.3 1056.2,1128.59 1059.06,1127.19L1414.53,952.187C1421.54,948.737 1425.98,941.602 1425.98,933.789L1425.98,864.519L1059.06,1045.16C1056.2,1046.56 1053.1,1047.27 1050,1047.27C1046.9,1047.27 1043.8,1046.56 1040.94,1045.16L674.023,864.519L674.023,933.789Z" style="fill-rule:nonzero;"/>
        <path d="M1425.98,818.804L1425.98,752.681L1076.34,918.299C1068.13,922.179 1059.04,924.219 1050,924.219C1040.96,924.219 1031.87,922.179 1023.7,918.315L674.023,752.68L674.023,818.804L1050,1003.9L1425.98,818.804Z" style="fill-rule:nonzero;"/>
        <path d="M521.689,635.137L1041.22,881.231C1044,882.548 1047,883.204 1050,883.204C1053,883.204 1056,882.548 1058.78,881.231L1578.31,635.137C1585.47,631.743 1590.04,624.528 1590.04,616.603C1590.04,608.677 1585.47,601.462 1578.31,598.068L1058.78,351.975C1053.22,349.342 1046.78,349.342 1041.22,351.975L521.689,598.068C514.526,601.462 509.961,608.677 509.961,616.603C509.961,624.528 514.526,631.743 521.689,635.137Z" style="fill-rule:nonzero;"/>
        <path d="M1590.04,824.414L1590.04,674.967L1549.02,694.395L1549.02,824.414C1549.02,835.741 1558.2,844.922 1569.53,844.922C1580.86,844.922 1590.04,835.741 1590.04,824.414Z" style="fill-rule:nonzero;"/>
        <path d="M1731.84,1425.57C1728.15,1425.15 1639.88,1415.28 1517.21,1429.46C1405.18,1442.42 1242.83,1478.88 1102,1578.78L998.003,1578.78C857.173,1478.88 694.82,1442.42 582.785,1429.46C460.127,1415.28 371.855,1425.14 368.155,1425.57C357.808,1426.77 350,1435.53 350,1445.94L350,1501.51C350,1507.18 352.349,1512.6 356.489,1516.48C360.628,1520.35 366.182,1522.35 371.85,1521.97C547.745,1510.44 693.007,1550.47 783.895,1586.08C867.972,1619.02 922.374,1654.37 937.072,1664.44L957.576,1707.27C970.001,1733.23 996.624,1750 1025.4,1750L1074.6,1750C1103.38,1750 1130,1733.23 1142.42,1707.27L1162.93,1664.44C1177.65,1654.36 1232.05,1619.01 1316.1,1586.08C1406.99,1550.47 1552.26,1510.44 1728.15,1521.97C1733.8,1522.34 1739.37,1520.35 1743.51,1516.48C1747.65,1512.6 1750,1507.18 1750,1501.51L1750,1445.94C1750,1435.53 1742.19,1426.77 1731.84,1425.57Z" style="fill-rule:nonzero;"/>
        <path d="M1433.43,1296.51C1435.2,1295.9 1436.97,1295.3 1438.75,1294.71C1449.5,1291.14 1461.11,1296.96 1464.68,1307.71C1468.25,1318.46 1462.42,1330.07 1451.68,1333.64C1450.03,1334.18 1448.38,1334.74 1446.75,1335.3C1444.54,1336.05 1442.29,1336.42 1440.09,1336.42C1431.57,1336.42 1423.61,1331.07 1420.69,1322.56C1417.01,1311.85 1422.72,1300.18 1433.43,1296.51ZM1195.47,1322.05C1144.2,1349.11 1102.38,1380.95 1070.51,1417.13L1070.51,1537.76L1089.13,1537.76C1234.62,1438.42 1398.99,1401.85 1512.5,1388.72C1557.82,1383.48 1603.56,1380.82 1648.45,1380.82C1655.65,1380.82 1662.47,1380.89 1668.91,1381.01L1684.52,1299.28C1656.83,1299.19 1587.32,1301.51 1513.97,1317.02C1512.54,1317.32 1511.12,1317.46 1509.71,1317.46C1500.23,1317.46 1491.71,1310.84 1489.67,1301.19C1487.33,1290.11 1494.41,1279.23 1505.49,1276.89C1584.37,1260.21 1662.71,1257.66 1692.3,1258.51L1695.62,1241.15C1696.76,1235.15 1695.17,1228.94 1691.28,1224.23C1687.38,1219.52 1681.59,1216.8 1675.47,1216.8C1670.39,1216.8 1549.24,1217.15 1409.3,1247.76C1326.56,1265.85 1254.62,1290.85 1195.47,1322.05Z" style="fill-rule:nonzero;"/>
        <path d="M635.324,1307.71C638.892,1296.96 650.501,1291.14 661.249,1294.71C663.027,1295.3 664.802,1295.9 666.571,1296.51C677.283,1300.18 682.986,1311.85 679.309,1322.56C676.389,1331.07 668.43,1336.42 659.914,1336.42C657.705,1336.42 655.46,1336.06 653.254,1335.3C651.616,1334.74 649.972,1334.18 648.325,1333.64C637.575,1330.07 631.754,1318.46 635.324,1307.71ZM407.697,1258.51C437.286,1257.66 515.63,1260.21 594.509,1276.89C605.591,1279.23 612.675,1290.11 610.332,1301.19C608.292,1310.84 599.772,1317.46 590.287,1317.46C588.881,1317.46 587.455,1317.32 586.025,1317.02C512.681,1301.51 443.165,1299.18 415.482,1299.28L431.09,1381.01C437.52,1380.89 444.335,1380.82 451.54,1380.82C496.428,1380.82 542.17,1383.48 587.495,1388.72C701.011,1401.85 865.38,1438.42 1010.87,1537.76L1029.49,1537.76L1029.49,1417.13C997.618,1380.95 955.804,1349.11 904.529,1322.05C845.38,1290.85 773.438,1265.85 690.702,1247.76C550.759,1217.15 429.615,1216.8 424.526,1216.8C418.414,1216.8 412.62,1219.52 408.724,1224.23C404.828,1228.94 403.236,1235.15 404.383,1241.15L407.697,1258.51Z" style="fill-rule:nonzero;"/>
    </g>
</svg>
